<?xml version="1.0" standalone="no"?>
<!DOCTYPE svg PUBLIC "-//W3C//DTD SVG 20010904//EN"
 "http://www.w3.org/TR/2001/REC-SVG-20010904/DTD/svg10.dtd">
<svg version="1.0" xmlns="http://www.w3.org/2000/svg"
 width="200.000000pt" height="200.000000pt" viewBox="0 0 200.000000 200.000000"
 preserveAspectRatio="xMidYMid meet">

<g transform="translate(0.000000,200.000000) scale(0.100000,-0.100000)"
fill="#000000" stroke="none">
<path d="M389 1384 c-64 -19 -141 -91 -175 -162 -68 -141 -12 -330 120 -407
47 -27 129 -48 156 -40 27 9 54 56 52 91 -2 19 6 41 19 57 25 33 38 34 32 3
-3 -13 2 -37 10 -53 10 -19 12 -34 6 -44 -5 -8 -8 -21 -8 -29 0 -8 5 -4 10 9
13 32 28 17 34 -34 3 -21 8 -41 12 -44 3 -3 3 19 0 50 -7 53 -6 56 24 78 49
36 92 139 92 220 1 100 -25 165 -93 233 -83 83 -180 107 -291 72z m221 -30
c62 -34 95 -70 128 -143 47 -103 25 -258 -45 -323 -19 -16 -25 -18 -20 -6 3 9
9 60 13 115 8 110 17 143 39 143 16 0 19 17 6 38 -6 10 -10 10 -21 -3 -13 -16
-40 -21 -40 -6 0 5 11 16 25 25 25 17 25 17 8 47 -10 17 -32 44 -50 59 -28 25
-37 27 -85 23 -68 -5 -81 -10 -75 -27 7 -19 -17 -28 -46 -17 -12 5 -35 8 -52
7 -25 -1 -31 -6 -33 -28 -3 -23 2 -28 35 -37 21 -6 45 -11 53 -11 8 0 22 -5
30 -10 11 -8 8 -10 -15 -7 -33 5 -85 -20 -85 -40 0 -8 12 -13 29 -13 17 0 32
-4 35 -9 8 -13 61 -8 79 7 12 11 22 10 51 -2 l36 -15 0 -69 c0 -68 -1 -70 -36
-98 -72 -57 -80 -65 -61 -58 29 10 24 -66 -7 -95 -23 -21 -28 -22 -76 -12 -65
14 -96 30 -143 76 -104 101 -122 256 -44 386 33 56 101 110 161 129 55 17 148
5 206 -26z m2 -101 c-6 -3 -9 -9 -6 -15 4 -6 -1 -8 -11 -6 -30 5 -28 26 2 25
15 0 22 -2 15 -4z m-52 -18 c14 -17 0 -21 -17 -4 -9 9 -10 6 -6 -12 5 -19 3
-22 -7 -12 -13 12 -7 43 8 43 5 0 15 -7 22 -15z m134 -2 c11 -27 -9 -37 -44
-23 -24 10 -28 15 -19 26 16 19 56 17 63 -3z m-186 -21 c2 -7 -2 -10 -12 -6
-9 3 -16 11 -16 16 0 13 23 5 28 -10z m60 -23 c-7 -5 -19 -9 -27 -9 -11 0 -11
3 -1 14 6 8 18 12 27 9 12 -5 12 -7 1 -14z m62 -9 c0 -13 -11 -13 -30 0 -12 8
-11 10 8 10 12 0 22 -4 22 -10z"/>
<path d="M480 870 c-8 -5 -12 -12 -9 -15 4 -3 12 1 19 10 14 17 11 19 -10 5z"/>
<path d="M910 1295 c0 -52 1 -55 24 -55 25 0 56 32 56 57 0 20 -38 53 -60 53
-18 0 -20 -7 -20 -55z m54 13 c7 -12 6 -21 -3 -32 -21 -25 -31 -19 -31 20 0
37 14 42 34 12z"/>
<path d="M1010 1295 c0 -52 1 -55 24 -55 14 0 28 5 31 10 3 6 -3 10 -14 10
-12 0 -21 7 -21 16 0 8 4 13 9 9 5 -3 12 -1 16 5 3 5 -1 10 -9 10 -9 0 -16 7
-16 15 0 8 9 15 20 15 11 0 20 5 20 10 0 6 -13 10 -30 10 -30 0 -30 -1 -30
-55z"/>
<path d="M1090 1295 c0 -52 1 -55 24 -55 14 0 28 5 31 10 3 6 -3 10 -14 10
-26 0 -27 9 -3 26 16 13 16 13 0 14 -25 0 -23 30 2 30 11 0 20 5 20 10 0 6
-13 10 -30 10 -30 0 -30 -1 -30 -55z"/>
<path d="M1170 1293 c1 -48 3 -55 13 -42 7 9 22 21 35 28 39 21 22 71 -25 71
-21 0 -23 -4 -23 -57z m45 17 c0 -7 -6 -15 -12 -17 -8 -3 -13 4 -13 17 0 13 5
20 13 18 6 -3 12 -11 12 -18z"/>
<path d="M910 1140 c0 -49 1 -50 30 -50 17 0 30 5 30 10 0 6 -9 10 -20 10 -17
0 -20 7 -20 40 0 22 -4 40 -10 40 -5 0 -10 -22 -10 -50z"/>
<path d="M990 1140 c0 -49 1 -50 30 -50 17 0 30 5 30 10 0 6 -9 10 -20 10 -11
0 -20 5 -20 10 0 6 7 10 15 10 8 0 15 5 15 10 0 6 -7 10 -15 10 -22 0 -18 15
8 28 21 10 20 11 -10 11 -33 1 -33 1 -33 -49z"/>
<path d="M1108 1179 c-4 -8 -13 -31 -22 -51 -10 -23 -12 -38 -6 -38 6 0 15 11
20 25 5 14 13 25 16 25 4 0 5 -3 1 -6 -3 -3 3 -15 13 -27 29 -30 30 -19 5 37
-14 31 -24 44 -27 35z"/>
<path d="M1180 1140 c0 -27 5 -50 10 -50 6 0 10 18 10 40 0 29 4 40 15 40 18
0 19 -12 4 -27 -12 -12 4 -53 22 -53 6 0 6 6 0 18 -7 13 -7 22 0 29 20 20 0
53 -32 53 -28 0 -29 -1 -29 -50z"/>
<path d="M1274 1140 c1 -49 16 -73 16 -25 0 30 11 32 35 5 28 -30 35 -24 33
25 -3 47 -18 64 -18 20 0 -31 -7 -31 -40 0 l-27 26 1 -51z"/>
<path d="M1380 1140 c0 -27 5 -50 10 -50 6 0 10 23 10 50 0 28 -4 50 -10 50
-5 0 -10 -22 -10 -50z"/>
<path d="M1420 1142 c0 -29 5 -52 10 -52 6 0 10 11 10 25 0 31 7 31 37 3 l23
-21 0 46 c0 26 -4 47 -10 47 -5 0 -10 -12 -10 -27 l0 -27 -30 29 -30 29 0 -52z"/>
<path d="M1534 1165 c-15 -23 -15 -27 0 -50 26 -40 86 -28 86 17 0 11 -7 18
-20 18 -11 0 -20 -4 -20 -10 0 -5 5 -10 10 -10 6 0 10 -4 10 -10 0 -16 -47
-12 -54 5 -10 26 5 45 36 45 17 0 27 4 23 10 -12 19 -54 10 -71 -15z"/>
<path d="M910 965 c0 -60 3 -75 15 -75 12 0 15 15 15 75 0 60 -3 75 -15 75
-12 0 -15 -15 -15 -75z"/>
<path d="M1060 998 l0 -42 -38 37 c-21 20 -41 37 -45 37 -4 0 -7 -31 -7 -70 0
-56 3 -70 15 -70 10 0 15 11 15 35 0 19 3 35 7 35 4 0 24 -17 45 -37 l38 -37
0 77 c0 62 -3 77 -15 77 -11 0 -15 -11 -15 -42z"/>
<path d="M1120 965 l0 -75 34 0 c40 0 76 37 76 77 0 34 -42 73 -80 73 l-30 0
0 -75z m68 33 c25 -25 8 -78 -25 -78 -9 0 -13 15 -13 45 0 46 13 58 38 33z"/>
<path d="M1400 965 l0 -75 33 0 c18 0 38 5 45 12 15 15 16 55 2 63 -6 4 -8 15
-5 25 7 23 -20 50 -51 50 -23 0 -24 -2 -24 -75z m50 37 c0 -13 -12 -22 -22
-16 -10 6 -1 24 13 24 5 0 9 -4 9 -8z m9 -51 c18 -11 5 -31 -20 -31 -21 0 -22
1 -13 24 7 18 13 19 33 7z"/>
<path d="M1294 1014 c-4 -10 -18 -43 -30 -71 -18 -43 -20 -53 -8 -53 8 0 22
19 31 42 l17 42 18 -42 c10 -23 25 -42 33 -42 11 0 9 14 -12 63 -32 76 -40 86
-49 61z"/>
<path d="M1550 985 c-39 -89 -41 -95 -25 -95 7 0 17 9 20 20 3 11 13 20 21 20
8 0 14 5 14 11 0 5 -4 7 -10 4 -6 -4 -7 1 -3 11 5 14 11 9 24 -24 10 -23 23
-42 29 -42 16 0 11 20 -19 85 l-28 60 -23 -50z"/>
<path d="M1678 996 c20 -33 20 -34 1 -62 -23 -35 -24 -44 -4 -44 8 0 20 10 26
22 l12 22 17 -22 c10 -12 25 -22 34 -22 13 0 12 6 -6 36 -20 34 -20 37 -5 64
21 34 21 40 2 40 -8 0 -19 -9 -26 -21 l-11 -21 -14 21 c-9 12 -22 21 -31 21
-13 0 -12 -5 5 -34z"/>
<path d="M565 870 c3 -5 8 -10 11 -10 2 0 4 5 4 10 0 6 -5 10 -11 10 -5 0 -7
-4 -4 -10z"/>
<path d="M890 830 c0 -5 7 -10 15 -10 18 0 18 -8 0 -40 -20 -36 -19 -40 15
-40 17 0 30 5 30 10 0 6 -9 10 -20 10 -20 0 -20 0 0 33 26 42 25 47 -10 47
-16 0 -30 -4 -30 -10z"/>
<path d="M993 790 c0 -30 2 -43 4 -27 2 15 2 39 0 55 -2 15 -4 2 -4 -28z"/>
<path d="M1047 810 c-10 -46 -9 -70 3 -70 6 0 10 14 10 32 0 30 1 31 15 12 12
-16 16 -17 24 -5 8 12 11 9 16 -12 11 -43 26 -31 19 16 -8 53 -19 65 -34 38
l-11 -22 -18 22 -18 22 -6 -33z"/>
<path d="M1170 791 c0 -50 1 -51 30 -51 36 0 44 15 33 61 -7 27 -15 35 -36 37
-26 3 -27 2 -27 -47z m40 19 c0 -5 -4 -10 -10 -10 -5 0 -10 5 -10 10 0 6 5 10
10 10 6 0 10 -4 10 -10z m10 -40 c0 -5 -7 -10 -15 -10 -8 0 -15 5 -15 10 0 6
7 10 15 10 8 0 15 -4 15 -10z"/>
<path d="M1286 800 c-20 -50 -21 -69 -4 -52 16 16 45 15 51 0 2 -7 7 -10 11
-7 6 6 -29 99 -38 99 -2 0 -11 -18 -20 -40z m29 -10 c3 -5 1 -10 -4 -10 -6 0
-11 5 -11 10 0 6 2 10 4 10 3 0 8 -4 11 -10z"/>
<path d="M1380 791 c0 -46 2 -51 23 -51 39 0 48 13 39 56 -6 33 -12 40 -35 42
-26 3 -27 2 -27 -47z m40 19 c0 -5 -4 -10 -10 -10 -5 0 -10 5 -10 10 0 6 5 10
10 10 6 0 10 -4 10 -10z m10 -40 c0 -5 -7 -10 -15 -10 -8 0 -15 5 -15 10 0 6
7 10 15 10 8 0 15 -4 15 -10z"/>
<path d="M1486 801 c8 -70 27 -84 40 -28 l7 32 13 -30 c6 -16 16 -29 20 -28
10 2 35 85 28 92 -8 8 -24 -21 -25 -44 0 -15 -5 -11 -16 15 l-16 35 -11 -27
c-5 -16 -13 -28 -16 -28 -3 0 -11 12 -18 28 -11 25 -11 24 -6 -17z"/>
<path d="M1630 790 c0 -49 1 -50 30 -50 17 0 30 5 30 10 0 6 -9 10 -20 10 -11
0 -20 5 -20 10 0 6 7 10 15 10 8 0 15 5 15 10 0 6 -7 10 -15 10 -8 0 -15 5
-15 10 0 6 9 10 20 10 11 0 20 5 20 10 0 6 -13 10 -30 10 -29 0 -30 -1 -30
-50z"/>
<path d="M615 749 c-4 -6 -5 -12 -2 -15 2 -3 7 2 10 11 7 17 1 20 -8 4z"/>
<path d="M635 709 c-4 -6 -5 -12 -2 -15 2 -3 7 2 10 11 7 17 1 20 -8 4z"/>
<path d="M389 668 c-7 -25 -4 -34 13 -35 15 -2 17 1 9 11 -6 7 -8 16 -4 19 3
4 1 7 -5 7 -7 0 -12 -1 -13 -2z"/>
<path d="M875 660 c-3 -5 -1 -10 4 -10 6 0 11 5 11 10 0 6 -2 10 -4 10 -3 0
-8 -4 -11 -10z"/>
<path d="M1110 660 c0 -5 -7 -7 -15 -4 -9 4 -15 0 -15 -8 0 -7 9 -14 20 -15
14 -1 20 4 20 18 0 10 -2 19 -5 19 -3 0 -5 -4 -5 -10z"/>
<path d="M1201 649 c0 -13 3 -18 6 -10 5 11 7 11 14 0 5 -8 9 -9 9 -3 0 6 -7
17 -15 24 -13 10 -15 9 -14 -11z"/>
<path d="M451 644 c0 -11 3 -14 6 -6 3 7 2 16 -1 19 -3 4 -6 -2 -5 -13z"/>
<path d="M476 653 c-11 -11 -7 -20 9 -20 8 0 15 4 15 8 0 11 -16 20 -24 12z"/>
<path d="M510 645 c0 -8 2 -15 4 -15 2 0 6 7 10 15 3 8 1 15 -4 15 -6 0 -10
-7 -10 -15z"/>
<path d="M550 639 c0 -27 34 -22 37 6 3 20 3 20 -6 0 -8 -17 -10 -18 -10 -2
-1 24 -21 21 -21 -4z"/>
<path d="M610 649 c0 -5 5 -7 10 -4 6 3 10 8 10 11 0 2 -4 4 -10 4 -5 0 -10
-5 -10 -11z"/>
<path d="M646 653 c-11 -11 -7 -20 9 -20 8 0 15 4 15 8 0 11 -16 20 -24 12z"/>
<path d="M681 643 c0 -12 2 -14 6 -4 5 11 7 11 15 0 8 -12 9 -12 6 0 -6 22
-28 25 -27 4z"/>
<path d="M740 649 c0 -5 5 -7 10 -4 6 3 10 8 10 11 0 2 -4 4 -10 4 -5 0 -10
-5 -10 -11z"/>
<path d="M777 653 c-12 -11 -8 -30 6 -30 7 0 14 9 14 19 2 18 -8 24 -20 11z"/>
<path d="M837 653 c-12 -11 -8 -23 8 -23 8 0 15 7 15 15 0 16 -12 20 -23 8z"/>
<path d="M901 644 c0 -11 3 -14 6 -6 3 7 2 16 -1 19 -3 4 -6 -2 -5 -13z"/>
<path d="M945 649 c-4 -6 -5 -12 -2 -15 2 -3 7 2 10 11 7 17 1 20 -8 4z"/>
<path d="M986 645 c4 -8 8 -15 10 -15 2 0 4 7 4 15 0 8 -4 15 -10 15 -5 0 -7
-7 -4 -15z"/>
<path d="M1015 650 c-8 -13 -1 -24 14 -19 6 3 7 10 2 18 -6 10 -10 10 -16 1z"/>
<path d="M1137 647 c-3 -8 1 -14 9 -14 16 0 19 13 5 21 -5 3 -11 0 -14 -7z"/>
<path d="M1261 643 c0 -12 2 -14 6 -4 5 11 7 11 15 0 8 -12 9 -12 6 0 -6 22
-28 25 -27 4z"/>
<path d="M1300 645 c0 -8 5 -15 10 -15 6 0 10 7 10 15 0 8 -4 15 -10 15 -5 0
-10 -7 -10 -15z"/>
<path d="M1351 644 c0 -11 3 -14 6 -6 3 7 2 16 -1 19 -3 4 -6 -2 -5 -13z"/>
<path d="M1390 647 c0 -7 9 -13 19 -13 15 0 17 3 9 13 -6 7 -14 13 -19 13 -5
0 -9 -6 -9 -13z"/>
<path d="M1436 647 c3 -10 9 -15 12 -12 3 3 0 11 -7 18 -10 9 -11 8 -5 -6z"/>
<path d="M1461 644 c0 -11 3 -14 6 -6 3 7 2 16 -1 19 -3 4 -6 -2 -5 -13z"/>
<path d="M1485 649 c-4 -6 -4 -13 -1 -16 3 -4 6 0 6 8 0 11 2 11 10 -1 8 -13
10 -12 10 3 0 19 -15 23 -25 6z"/>
<path d="M1545 649 c-4 -5 -4 -13 -1 -16 3 -4 6 0 6 8 0 11 2 11 10 -1 6 -9
10 -10 10 -3 0 17 -17 25 -25 12z"/>
<path d="M1587 653 c-12 -11 -8 -30 6 -30 7 0 14 9 14 19 2 18 -8 24 -20 11z"/>
</g>
</svg>
